<?xml version="1.0" encoding="iso-8859-1"?>
<!-- Generator: Adobe Illustrator 16.0.0, SVG Export Plug-In . SVG Version: 6.00 Build 0)  -->
<!DOCTYPE svg PUBLIC "-//W3C//DTD SVG 1.1//EN" "http://www.w3.org/Graphics/SVG/1.1/DTD/svg11.dtd">
<svg version="1.1" id="Capa_1" xmlns="http://www.w3.org/2000/svg" xmlns:xlink="http://www.w3.org/1999/xlink" x="0px" y="0px"
	 width="34.682px" height="34.682px" viewBox="0 0 34.682 34.682" style="enable-background:new 0 0 34.682 34.682;"
	 xml:space="preserve">
<g>
	<g id="_x31_49_77_">
		<g>
			<polygon points="30.975,19.626 31.769,23.726 33.145,23.726 33.925,19.626 33.925,17.242 30.975,17.242 			"/>
			<rect x="30.975" y="24.563" width="2.95" height="2.809"/>
			<path d="M27.384,5.145c-2.424-0.13-4.445,1.107-5.742,2.917c-1.295-1.706-3.311-2.785-5.746-2.917
				c-4.123-0.222-7.09,3.5-7.295,7.297c-0.023,0.488,0.008,0.957,0.084,1.411c-0.258-0.037-0.521-0.062-0.789-0.077
				c-4.457-0.24-7.664,3.783-7.885,7.886c-0.227,4.193,3.32,7.279,7.158,7.812v0.073h19.554c-1.613-1.749-2.607-4.078-2.607-6.646
				c0-5.421,4.395-9.814,9.813-9.814c0.229,0,0.457,0.019,0.684,0.034c0.032-0.226,0.058-0.453,0.069-0.682
				C34.458,8.307,31.515,5.366,27.384,5.145z"/>
		</g>
	</g>
</g>
<g>
</g>
<g>
</g>
<g>
</g>
<g>
</g>
<g>
</g>
<g>
</g>
<g>
</g>
<g>
</g>
<g>
</g>
<g>
</g>
<g>
</g>
<g>
</g>
<g>
</g>
<g>
</g>
<g>
</g>
</svg>
