<?xml version="1.0" encoding="utf-8"?>
<!-- Generator: Adobe Illustrator 19.2.0, SVG Export Plug-In . SVG Version: 6.00 Build 0)  -->
<svg version="1.1" id="Layer_1" xmlns="http://www.w3.org/2000/svg" xmlns:xlink="http://www.w3.org/1999/xlink" x="0px" y="0px"
	 viewBox="0 0 179.5 179.5" style="enable-background:new 0 0 179.5 179.5;" xml:space="preserve">
<style type="text/css">
	.st0{fill:#FFFFFF;}
	.st1{fill:#19154C;}
	.st2{fill:#231F20;}
	.st3{fill:#562670;}
	.st4{fill:#E31955;}
	.st5{fill:#F89A1C;}
	.st6{fill:#3E1E5D;}
	.st7{fill:#5F2A7F;}
	.st8{fill:#6F2A81;}
	.st9{fill:#97509E;}
	.st10{opacity:0.8;fill:#862C90;}
	.st11{fill:#C31F47;}
	.st12{fill:#F0617F;}
	.st13{fill:#EE3C57;}
	.st14{fill:#F27B86;}
	.st15{fill:#EF5E7C;}
	.st16{fill:#C81E50;}
	.st17{fill:#ED4224;}
	.st18{fill:#EB4924;}
	.st19{fill:#FCB614;}
	.st20{fill:#F47E20;}
	.st21{fill:#EF5123;}
	.st22{opacity:0.9;fill:#9F5BA3;}
	.st23{fill:#F5A1B8;}
	.st24{fill:#CB9BC6;}
	.st25{fill:#FFD267;}
	.st26{opacity:0.8;fill:#FCB614;}
	.st27{opacity:0.4;}
</style>
<g>
	<g>
		<polygon class="st3" points="86.2,38.4 104,33.9 76.8,60.6 		"/>
		<polygon class="st3" points="104,33.9 99.9,20.4 126.2,61.6 		"/>
		<polygon class="st3" points="104,33.9 116.4,71.6 126.2,61.6 		"/>
		<polygon class="st3" points="97.3,55.4 104,33.9 116.4,71.6 		"/>
		<polygon class="st3" points="106.2,94.6 116.4,71.6 97.3,55.4 		"/>
		<polygon class="st3" points="126.2,61.6 116.4,71.6 119.8,106.6 		"/>
		<polygon class="st3" points="106.2,94.6 119.8,106.6 116.4,71.6 		"/>
		<polygon class="st3" points="104,33.9 86.2,38.4 99.9,20.4 		"/>
		<polygon class="st3" points="86.2,38.4 76.8,60.6 77.6,75 97.3,55.4 104,33.9 		"/>
		<polygon class="st4" points="87.8,67.9 97.3,55.4 106.2,94.6 		"/>
		<polygon class="st4" points="77.6,75 87.8,67.9 97.3,55.4 		"/>
		<polygon class="st4" points="76.8,60.6 77.6,75 63.6,73.6 		"/>
		<polygon class="st4" points="83.6,44.5 73,61.3 63.6,73.6 76.8,60.6 		"/>
		<polygon class="st4" points="87.8,67.9 80.7,98.1 99.2,104.2 		"/>
		<polygon class="st4" points="80.7,98.1 87.8,67.9 99.2,104.2 88.2,74.2 		"/>
		<polygon class="st4" points="106.2,94.6 99.2,104.2 87.8,67.9 		"/>
		<polygon class="st4" points="77.6,75 87.8,67.9 80.7,98.1 		"/>
		<polygon class="st4" points="65,92.4 77.6,75 80.7,98.1 		"/>
		<polygon class="st4" points="63.6,73.6 65,92.4 77.6,75 		"/>
		<polygon class="st4" points="73,61.3 58.7,49.1 63.6,73.6 		"/>
		<polygon class="st4" points="42.8,74.2 58.7,49.1 63.6,73.6 		"/>
		<polygon class="st4" points="42.8,74.2 44.9,85.1 63.6,73.6 		"/>
		<polygon class="st4" points="44.9,85.1 65,92.4 63.6,73.6 		"/>
		<polygon class="st4" points="57.5,105.2 65,92.4 44.9,85.1 		"/>
		<polygon class="st4" points="80.7,98.1 65,92.4 57.5,105.2 66.7,98.8 		"/>
		<polygon class="st4" points="99.2,117.4 99.2,104.2 80.7,98.1 66.7,98.8 		"/>
		<polygon class="st5" points="121.5,94.6 119.8,106.6 136.8,90.3 		"/>
		<polygon class="st5" points="99.2,117.8 108.1,101.4 106.2,94.6 99.2,104.2 		"/>
		<polygon class="st5" points="119.8,106.6 106.2,94.6 108.1,101.4 		"/>
		<polygon class="st5" points="57.5,105.2 79.2,140.1 66.7,98.8 		"/>
		<polygon class="st5" points="66.7,98.8 79.2,140.1 99.2,117.4 		"/>
		<polygon class="st5" points="99.2,117.8 114.4,140.1 108.1,101.4 		"/>
		<polygon class="st5" points="119.8,106.6 108.1,101.4 114.4,140.1 		"/>
		<polygon class="st5" points="136.8,90.3 114.4,140.1 119.8,106.6 		"/>
		<polygon class="st3" points="76.8,60.6 104,33.9 97.3,55.4 77.6,75 		"/>
		<polygon class="st5" points="79.2,140.1 98.1,151.2 99.2,117.4 		"/>
		<polygon class="st5" points="98.1,151.2 99.2,117.4 114.4,140.1 		"/>
		<polygon class="st3" points="97.3,55.4 104,33.9 116.3,71.6 104.4,41.2 		"/>
		<polygon class="st4" points="42.8,74.2 58.7,49.1 63.6,73.6 57.8,53.2 		"/>
		<polygon class="st3" points="86.2,38.4 99.9,20.4 104,33.9 99.5,23.4 		"/>
		<polygon class="st5" points="79.2,140.1 66.7,98.8 99.2,117.4 70.9,103.9 		"/>
		<polygon class="st4" points="63.6,73.6 44.9,85.1 65,92.4 49.4,85.7 		"/>
		<polygon class="st5" points="79.2,140.1 99.2,117.4 98.1,151.2 97,124.2 		"/>
		<polygon class="st5" points="119.8,106.6 136.8,90.3 131.1,102.7 133.2,96 		"/>
		<polygon class="st4" points="66.7,98.8 80.7,98.1 99.2,117.4 		"/>
	</g>
	<g>
		<polygon class="st0" points="86.2,38.4 103.9,33.9 76.8,60.6 		"/>
		<polygon class="st6" points="103.9,33.9 99.8,20.4 126.2,61.6 		"/>
		<polygon class="st7" points="103.9,33.9 116.3,71.6 126.2,61.6 		"/>
		<polygon class="st8" points="97.3,55.4 103.9,33.9 116.3,71.6 		"/>
		<polygon class="st3" points="106.1,94.6 116.3,71.6 97.3,55.4 		"/>
		<polygon class="st6" points="126.2,61.6 116.3,71.6 119.7,106.6 		"/>
		<polygon class="st7" points="106.1,94.6 119.7,106.6 116.3,71.6 		"/>
		<polygon class="st9" points="103.9,33.9 86.2,38.4 99.8,20.4 		"/>
		<polygon class="st10" points="86.2,38.4 76.8,60.6 77.6,75 97.3,55.4 103.9,33.9 		"/>
		<polygon class="st11" points="87.8,67.9 97.3,55.4 106.1,94.6 		"/>
		<polygon class="st12" points="77.6,75 87.8,67.9 97.3,55.4 		"/>
		<polygon class="st4" points="76.8,60.6 77.6,75 63.5,73.6 		"/>
		<polygon class="st13" points="83.6,44.5 73,61.3 63.5,73.6 76.8,60.6 		"/>
		<polygon class="st13" points="87.8,67.9 80.7,98.1 99.1,104.2 		"/>
		<polygon class="st14" points="80.7,98.1 87.8,67.9 99.1,104.2 88.1,74.2 		"/>
		<polygon class="st4" points="106.1,94.6 99.1,104.2 87.8,67.9 		"/>
		<polygon class="st15" points="77.6,75 87.8,67.9 80.7,98.1 		"/>
		<polygon class="st4" points="65,92.4 77.6,75 80.7,98.1 		"/>
		<polygon class="st13" points="63.5,73.6 65,92.4 77.6,75 		"/>
		<polygon class="st11" points="73,61.3 58.6,49.1 63.5,73.6 		"/>
		<polygon class="st13" points="42.7,74.2 58.6,49.1 63.5,73.6 		"/>
		<polygon class="st15" points="42.7,74.2 44.8,85.1 63.5,73.6 		"/>
		<polygon class="st4" points="44.8,85.1 65,92.4 63.5,73.6 		"/>
		<polygon class="st16" points="57.5,105.2 65,92.4 44.8,85.1 		"/>
		<polygon class="st13" points="80.7,98.1 65,92.4 57.5,105.2 66.6,98.8 		"/>
		<polygon class="st4" points="99.1,117.4 99.1,104.2 80.7,98.1 66.6,98.8 		"/>
		<polygon class="st17" points="121.5,94.6 119.7,106.6 136.8,90.3 		"/>
		<polygon class="st5" points="99.1,117.8 108.1,101.4 106.1,94.6 99.1,104.2 		"/>
		<polygon class="st18" points="119.7,106.6 106.1,94.6 108.1,101.4 		"/>
		<polygon class="st19" points="57.5,105.2 79.2,140 66.6,98.8 		"/>
		<polygon class="st5" points="66.6,98.8 79.2,140 99.1,117.4 		"/>
		<polygon class="st20" points="99.1,117.8 114.4,140 108.1,101.4 		"/>
		<polygon class="st17" points="119.7,106.6 108.1,101.4 114.4,140 		"/>
		<polygon class="st21" points="136.8,90.3 114.4,140 119.7,106.6 		"/>
		<polygon class="st9" points="76.8,60.6 103.9,33.9 97.3,55.4 77.6,75 		"/>
		<polygon class="st20" points="79.2,140 98,151.2 99.1,117.4 		"/>
		<polygon class="st21" points="98,151.2 99.1,117.4 114.4,140 		"/>
		<polygon class="st22" points="97.3,55.4 103.9,33.9 116.3,71.6 104.3,41.2 		"/>
		<polygon class="st23" points="42.7,74.2 58.6,49.1 63.5,73.6 57.8,53.2 		"/>
		<polygon class="st24" points="86.2,38.4 99.8,20.4 103.9,33.9 99.5,23.4 		"/>
		<polygon class="st25" points="79.2,140 66.6,98.8 99.1,117.4 70.9,103.9 		"/>
		<polygon class="st14" points="63.5,73.6 44.8,85.1 65,92.4 49.3,85.7 		"/>
		<polygon class="st26" points="79.2,140 99.1,117.4 98,151.2 97,124.2 		"/>
		<polygon class="st5" points="119.7,106.6 136.8,90.3 131,102.6 133.1,96 		"/>
		<polygon class="st11" points="66.6,98.8 80.7,98.1 99.1,117.4 		"/>
	</g>
	<polygon class="st27" points="86.8,157.7 78.8,155.5 88.4,153.2 97.4,153.8 103.3,153.2 117.2,155.5 110.5,158.5 100.1,157.5 
		95.9,159.1 	"/>
</g>
</svg>
